<svg width="152" height="122" viewBox="0 0 152 122" fill="none" xmlns="http://www.w3.org/2000/svg">
<path d="M98 11.8182L74 23.3915V0.244978L98 11.8182Z" fill="#9FECFF"/>
<ellipse cx="74.5" cy="40.6477" rx="7.5" ry="8.35227" fill="#6978FF"/>
<path d="M81.5 40.6477C81.5 45.0364 78.3167 48.5 74.5 48.5C70.6833 48.5 67.5 45.0364 67.5 40.6477C67.5 36.2591 70.6833 32.7955 74.5 32.7955C78.3167 32.7955 81.5 36.2591 81.5 40.6477Z" stroke="black" stroke-opacity="0.25"/>
<rect x="72" width="6" height="35.6364" fill="#8CC8FF"/>
<rect x="20.25" y="61.25" width="111.5" height="60.5" rx="2.75" fill="#CFF1F6" stroke="black" stroke-width="0.5"/>
<path d="M65.04 86.32L66.16 85.5C66.6667 85.94 67.2 86.42 67.76 86.94C68.32 87.4467 68.8667 87.9667 69.4 88.5C69.9333 89.02 70.4333 89.5267 70.9 90.02C71.3667 90.5 71.76 90.9333 72.08 91.32L70.84 92.3C70.5333 91.9 70.1533 91.4533 69.7 90.96C69.26 90.4667 68.7733 89.9467 68.24 89.4C67.72 88.8533 67.18 88.32 66.62 87.8C66.0733 87.2667 65.5467 86.7733 65.04 86.32ZM65.26 78.2H66.78V82.12C66.78 82.76 66.74 83.4333 66.66 84.14C66.5933 84.8467 66.4533 85.5667 66.24 86.3C66.04 87.0333 65.7267 87.7667 65.3 88.5C64.8867 89.2333 64.3333 89.94 63.64 90.62C62.9467 91.3 62.0867 91.9467 61.06 92.56C60.9933 92.44 60.8933 92.3133 60.76 92.18C60.64 92.0467 60.5067 91.9067 60.36 91.76C60.2267 91.6133 60.1 91.5 59.98 91.42C60.98 90.8867 61.8067 90.3133 62.46 89.7C63.1133 89.0733 63.6267 88.4333 64 87.78C64.3867 87.1133 64.6667 86.4533 64.84 85.8C65.0133 85.1467 65.1267 84.5067 65.18 83.88C65.2333 83.2533 65.26 82.66 65.26 82.1V78.2ZM57.98 81.62H73.26V83.1H59.46V96.64H57.98V81.62ZM72.58 81.62H74.06V94.62C74.06 95.1133 73.9933 95.4867 73.86 95.74C73.7267 96.0067 73.4933 96.2067 73.16 96.34C72.8 96.46 72.3067 96.5267 71.68 96.54C71.0667 96.5667 70.3133 96.58 69.42 96.58C69.3933 96.4333 69.3533 96.2667 69.3 96.08C69.2467 95.9067 69.1867 95.7267 69.12 95.54C69.0533 95.3533 68.98 95.1933 68.9 95.06C69.38 95.0733 69.8333 95.08 70.26 95.08C70.7 95.0933 71.08 95.1 71.4 95.1C71.7333 95.1 71.96 95.1 72.08 95.1C72.28 95.0867 72.4133 95.0467 72.48 94.98C72.5467 94.9 72.58 94.7733 72.58 94.6V81.62ZM80.22 84.32H91.9V85.76H80.22V84.32ZM85.98 89.1H92.72V90.5H85.98V89.1ZM85.2 85.04H86.76V95.18L85.2 94.96V85.04ZM80.44 87.46L82 87.64C81.72 89.6533 81.2533 91.42 80.6 92.94C79.9467 94.46 79.06 95.7133 77.94 96.7C77.86 96.6067 77.74 96.4933 77.58 96.36C77.4333 96.24 77.28 96.1133 77.12 95.98C76.96 95.86 76.82 95.76 76.7 95.68C77.8067 94.8133 78.6533 93.68 79.24 92.28C79.84 90.88 80.24 89.2733 80.44 87.46ZM81.4 90.04C81.7467 91.0667 82.2 91.8933 82.76 92.52C83.32 93.1467 83.9667 93.6267 84.7 93.96C85.4333 94.2933 86.24 94.52 87.12 94.64C88.0133 94.76 88.9733 94.82 90 94.82C90.1467 94.82 90.3867 94.82 90.72 94.82C91.0533 94.82 91.4267 94.82 91.84 94.82C92.2667 94.82 92.7 94.82 93.14 94.82C93.58 94.82 93.98 94.82 94.34 94.82C94.7 94.82 94.9733 94.8133 95.16 94.8C95.0933 94.92 95.02 95.0733 94.94 95.26C94.86 95.4467 94.7867 95.6333 94.72 95.82C94.6667 96.0067 94.6267 96.1733 94.6 96.32H93.6H89.92C88.7333 96.32 87.6333 96.24 86.62 96.08C85.62 95.9333 84.7133 95.6533 83.9 95.24C83.1 94.8267 82.3867 94.24 81.76 93.48C81.1333 92.72 80.6067 91.7333 80.18 90.52L81.4 90.04ZM85.18 78.2H86.76V81.44H85.18V78.2ZM77.64 80.5H94.36V84.86H92.82V81.94H79.12V84.86H77.64V80.5Z" fill="#001066"/>
</svg>
