<svg width="152" height="122" viewBox="0 0 152 122" fill="none" xmlns="http://www.w3.org/2000/svg">
<rect x="71.1152" width="5.07205" height="42" fill="white"/>
<ellipse cx="74.1584" cy="42.5" rx="6.08647" ry="6.5" fill="white"/>
<path d="M96.9735 11.6242L71.5365 23.3504L71.4904 0.0169357L96.9735 11.6242Z" fill="white"/>
<rect x="20.25" y="61.25" width="111.5" height="60.5" rx="2.75" fill="#CFF1F6" stroke="black" stroke-width="0.5"/>
<path d="M41 82.3V83.72H51.04V82.3H41ZM41 79.9V81.3H51.04V79.9H41ZM39.56 78.84H52.54V84.78H39.56V78.84ZM37.16 85.9H54.8V87.16H37.16V85.9ZM46.06 88.4H53.16V89.62H46.06V88.4ZM39.78 88.52H44.7V89.66H39.78V88.52ZM39.78 91.06H44.7V92.18H39.78V91.06ZM48.14 89.52C48.7267 90.96 49.6333 92.2 50.86 93.24C52.1 94.2667 53.5667 94.9933 55.26 95.42C55.1667 95.5133 55.06 95.6267 54.94 95.76C54.82 95.9067 54.7067 96.0467 54.6 96.18C54.5067 96.3267 54.4267 96.46 54.36 96.58C52.6 96.06 51.0867 95.2267 49.82 94.08C48.5667 92.92 47.6067 91.52 46.94 89.88L48.14 89.52ZM52.7 88.4H52.98L53.24 88.34L54.16 88.72C53.72 90.08 53.0933 91.2667 52.28 92.28C51.4667 93.2933 50.5333 94.1533 49.48 94.86C48.4267 95.5533 47.32 96.0933 46.16 96.48C46.08 96.3067 45.9533 96.1 45.78 95.86C45.62 95.62 45.4667 95.4333 45.32 95.3C46.12 95.0733 46.9 94.7533 47.66 94.34C48.4333 93.9267 49.1467 93.44 49.8 92.88C50.4667 92.32 51.0467 91.6867 51.54 90.98C52.0467 90.26 52.4333 89.48 52.7 88.64V88.4ZM36.98 94.12C37.6333 94.0533 38.3733 93.98 39.2 93.9C40.04 93.82 40.9267 93.7267 41.86 93.62C42.7933 93.5133 43.7267 93.4067 44.66 93.3L44.68 94.54C43.32 94.7133 41.98 94.88 40.66 95.04C39.34 95.2 38.16 95.34 37.12 95.46L36.98 94.12ZM43.92 86.3H45.36V96.6H43.92V86.3ZM38.9 86.34H40.28V94.46H38.9V86.34ZM67.28 89.72L68.18 88.76C68.66 88.96 69.1533 89.1933 69.66 89.46C70.1667 89.7133 70.6467 89.9733 71.1 90.24C71.5667 90.5067 71.9533 90.76 72.26 91L71.34 92.04C71.0333 91.8 70.6467 91.54 70.18 91.26C69.7267 90.9667 69.2467 90.6867 68.74 90.42C68.2333 90.14 67.7467 89.9067 67.28 89.72ZM65.08 93.52L65.98 92.44C66.6467 92.6267 67.34 92.8467 68.06 93.1C68.78 93.34 69.4867 93.6 70.18 93.88C70.8733 94.16 71.5267 94.44 72.14 94.72C72.7667 95 73.3 95.2667 73.74 95.52L72.86 96.7C72.2733 96.34 71.54 95.96 70.66 95.56C69.7933 95.16 68.8733 94.78 67.9 94.42C66.9267 94.06 65.9867 93.76 65.08 93.52ZM67.68 78.2L69.16 78.44C68.6667 79.5333 68.0267 80.6533 67.24 81.8C66.4667 82.9467 65.5067 84 64.36 84.96C64.2933 84.8533 64.1933 84.74 64.06 84.62C63.94 84.5 63.8133 84.3867 63.68 84.28C63.56 84.16 63.44 84.0667 63.32 84C64.04 83.44 64.68 82.8267 65.24 82.16C65.8 81.4933 66.28 80.82 66.68 80.14C67.0933 79.4467 67.4267 78.8 67.68 78.2ZM67.4 80.28H72.84V81.62H66.74L67.4 80.28ZM72.4 80.28H72.7L72.98 80.22L73.9 80.76C73.3267 82.1733 72.56 83.4533 71.6 84.6C70.6533 85.7467 69.5933 86.7467 68.42 87.6C67.2467 88.4533 66.0467 89.1533 64.82 89.7C64.7533 89.5667 64.6667 89.4267 64.56 89.28C64.4533 89.1333 64.34 88.9933 64.22 88.86C64.1 88.7133 63.9867 88.6 63.88 88.52C65.08 88.04 66.24 87.4133 67.36 86.64C68.48 85.8533 69.48 84.9533 70.36 83.94C71.2533 82.9133 71.9333 81.7933 72.4 80.58V80.28ZM67.14 81.44C67.6867 82.48 68.3933 83.4733 69.26 84.42C70.1267 85.3667 71.0867 86.2133 72.14 86.96C73.2067 87.7067 74.32 88.2867 75.48 88.7C75.36 88.8067 75.24 88.9333 75.12 89.08C75 89.2267 74.88 89.3733 74.76 89.52C74.6533 89.6667 74.56 89.8067 74.48 89.94C73.32 89.4467 72.2 88.7933 71.12 87.98C70.04 87.1667 69.0533 86.24 68.16 85.2C67.28 84.1467 66.54 83.04 65.94 81.88L67.14 81.44ZM59.9 78.2L61.22 78.74C60.9667 79.2067 60.7 79.7067 60.42 80.24C60.14 80.7733 59.8533 81.2867 59.56 81.78C59.28 82.2733 59.0067 82.7 58.74 83.06L57.72 82.6C57.9733 82.2133 58.2333 81.7667 58.5 81.26C58.7667 80.74 59.0267 80.2133 59.28 79.68C59.5333 79.1333 59.74 78.64 59.9 78.2ZM62.16 80.48L63.42 81.06C62.9667 81.82 62.46 82.6267 61.9 83.48C61.3533 84.3333 60.8 85.1533 60.24 85.94C59.68 86.7267 59.1467 87.42 58.64 88.02L57.72 87.5C58.0933 87.0467 58.48 86.5333 58.88 85.96C59.2933 85.3733 59.6933 84.7667 60.08 84.14C60.48 83.5 60.8533 82.8667 61.2 82.24C61.56 81.6 61.88 81.0133 62.16 80.48ZM56.76 82.42L57.52 81.42C57.8933 81.7267 58.2667 82.0733 58.64 82.46C59.0267 82.8333 59.38 83.2067 59.7 83.58C60.02 83.94 60.2667 84.2667 60.44 84.56L59.62 85.7C59.4467 85.3933 59.2 85.0467 58.88 84.66C58.5733 84.26 58.2333 83.8667 57.86 83.48C57.4867 83.0933 57.12 82.74 56.76 82.42ZM61.44 85.14L62.5 84.7C62.7667 85.1267 63.02 85.5867 63.26 86.08C63.5133 86.56 63.7333 87.0333 63.92 87.5C64.12 87.9533 64.26 88.36 64.34 88.72L63.22 89.22C63.14 88.86 63.0067 88.4467 62.82 87.98C62.6333 87.5 62.42 87.0133 62.18 86.52C61.9533 86.0267 61.7067 85.5667 61.44 85.14ZM56.68 87.16C57.56 87.1333 58.5933 87.0933 59.78 87.04C60.9667 86.9867 62.1933 86.9333 63.46 86.88L63.44 88.1C62.2533 88.18 61.08 88.26 59.92 88.34C58.76 88.4067 57.7267 88.4733 56.82 88.54L56.68 87.16ZM61.96 89.84L63.06 89.5C63.3267 90.06 63.58 90.6867 63.82 91.38C64.0733 92.06 64.2467 92.6467 64.34 93.14L63.2 93.54C63.1067 93.0333 62.94 92.44 62.7 91.76C62.4733 91.0667 62.2267 90.4267 61.96 89.84ZM57.82 89.64L59.1 89.86C58.9667 90.8067 58.78 91.74 58.54 92.66C58.3 93.5667 58.02 94.34 57.7 94.98C57.6067 94.9133 57.4867 94.8467 57.34 94.78C57.2067 94.7133 57.06 94.6467 56.9 94.58C56.7533 94.5 56.62 94.44 56.5 94.4C56.8467 93.7867 57.12 93.06 57.32 92.22C57.5333 91.3667 57.7 90.5067 57.82 89.64ZM59.96 87.72H61.3V96.64H59.96V87.72ZM83.1 87.1H88.6V88.32H83.1V87.1ZM83.1 90.58H88.64V91.8H83.1V90.58ZM79 94.14H93.12V95.54H79V94.14ZM78.08 83.48H93.92V96.6H92.4V84.88H79.52V96.6H78.08V83.48ZM82.4 84.34H83.78V94.8H82.4V84.34ZM88.02 84.34H89.4V94.74H88.02V84.34ZM85 80.18L86.76 80.6C86.5467 81.2667 86.3333 81.9533 86.12 82.66C85.9067 83.3667 85.7 83.9733 85.5 84.48L84.14 84.08C84.2467 83.72 84.3533 83.3133 84.46 82.86C84.58 82.4067 84.6867 81.9467 84.78 81.48C84.8867 81 84.96 80.5667 85 80.18ZM77.16 79.52H94.9V80.96H77.16V79.52ZM108.24 78.2H109.74V80.92H108.24V78.2ZM103.48 80.32H114.6V81.64H103.48V80.32ZM102.68 85.02H115.18V86.34H102.68V85.02ZM105.38 81.82L106.68 81.56C106.827 81.92 106.96 82.3067 107.08 82.72C107.213 83.12 107.32 83.5067 107.4 83.88C107.493 84.2533 107.553 84.5867 107.58 84.88L106.2 85.22C106.187 84.9267 106.14 84.5867 106.06 84.2C105.98 83.8 105.88 83.3933 105.76 82.98C105.653 82.5667 105.527 82.18 105.38 81.82ZM111.32 81.52L112.8 81.72C112.587 82.3067 112.36 82.92 112.12 83.56C111.893 84.1867 111.673 84.72 111.46 85.16L110.18 84.94C110.313 84.6333 110.447 84.28 110.58 83.88C110.727 83.4667 110.867 83.0533 111 82.64C111.133 82.2267 111.24 81.8533 111.32 81.52ZM102.8 88.3H115.1V89.62H102.8V88.3ZM107.38 85.98L108.88 86.28C108.533 87.04 108.153 87.8533 107.74 88.72C107.34 89.5733 106.94 90.4067 106.54 91.22C106.14 92.02 105.767 92.7267 105.42 93.34L104.1 92.9C104.433 92.3 104.793 91.6 105.18 90.8C105.58 90 105.973 89.18 106.36 88.34C106.747 87.4867 107.087 86.7 107.38 85.98ZM105.14 92.62L106.02 91.6C106.767 91.8267 107.547 92.0867 108.36 92.38C109.173 92.6733 109.973 92.9933 110.76 93.34C111.547 93.6867 112.28 94.04 112.96 94.4C113.653 94.76 114.24 95.12 114.72 95.48L113.78 96.62C113.313 96.2733 112.747 95.9133 112.08 95.54C111.413 95.1667 110.687 94.8067 109.9 94.46C109.127 94.1 108.327 93.76 107.5 93.44C106.687 93.12 105.9 92.8467 105.14 92.62ZM111.3 89.14L112.76 89.36C112.52 90.48 112.16 91.4533 111.68 92.28C111.2 93.0933 110.567 93.7867 109.78 94.36C109.007 94.92 108.053 95.38 106.92 95.74C105.787 96.1 104.447 96.38 102.9 96.58C102.847 96.38 102.76 96.16 102.64 95.92C102.52 95.68 102.407 95.4867 102.3 95.34C103.727 95.18 104.96 94.9533 106 94.66C107.053 94.3667 107.933 93.98 108.64 93.5C109.347 93.0067 109.913 92.4067 110.34 91.7C110.78 90.98 111.1 90.1267 111.3 89.14ZM96.54 88.84C97.3533 88.64 98.3333 88.3733 99.48 88.04C100.627 87.7067 101.793 87.3667 102.98 87.02L103.16 88.36C102.067 88.7067 100.973 89.0533 99.88 89.4C98.7867 89.7333 97.7933 90.0333 96.9 90.3L96.54 88.84ZM96.88 82.24H102.98V83.64H96.88V82.24ZM99.6 78.22H101.04V94.76C101.04 95.2 100.987 95.5333 100.88 95.76C100.787 96 100.607 96.18 100.34 96.3C100.087 96.42 99.7467 96.5 99.32 96.54C98.8933 96.58 98.3533 96.5933 97.7 96.58C97.6733 96.3933 97.6133 96.16 97.52 95.88C97.44 95.6 97.3467 95.3533 97.24 95.14C97.6933 95.1533 98.1067 95.16 98.48 95.16C98.8533 95.16 99.1067 95.16 99.24 95.16C99.3733 95.16 99.4667 95.1267 99.52 95.06C99.5733 95.0067 99.6 94.9133 99.6 94.78V78.22Z" fill="#001066"/>
<circle cx="73.5" cy="43.5" r="7.5" fill="#6978FF"/>
<circle cx="73.5" cy="43.5" r="7" stroke="black" stroke-opacity="0.25"/>
</svg>
